<?xml version="1.0" encoding="iso-8859-1"?>
<!-- Uploaded to: SVG Repo, www.svgrepo.com, Generator: SVG Repo Mixer Tools -->
<!DOCTYPE svg PUBLIC "-//W3C//DTD SVG 1.1//EN" "http://www.w3.org/Graphics/SVG/1.1/DTD/svg11.dtd">
<svg fill="#000000" version="1.1" id="Capa_1" xmlns="http://www.w3.org/2000/svg" xmlns:xlink="http://www.w3.org/1999/xlink" 
	 width="800px" height="800px" viewBox="0 0 112.074 112.074"
	 xml:space="preserve">
<g>
	<g>
		<path d="M102.643,50.547c-2.523,0-4.813,1.001-6.506,2.621L74.657,34.332c0.735-1.342,1.155-2.882,1.155-4.518
			c0-5.201-4.231-9.432-9.432-9.432c-5.201,0-9.433,4.231-9.433,9.432c0,3.814,2.28,7.1,5.545,8.584L49.015,74.107
			c-1.307-0.686-2.79-1.078-4.364-1.078c-3,0-5.671,1.413-7.4,3.602L17.436,64.946c0.9-1.445,1.428-3.144,1.428-4.966
			c0-5.201-4.232-9.434-9.432-9.434C4.231,50.547,0,54.779,0,59.98c0,5.199,4.231,9.431,9.432,9.431
			c2.785,0,5.284-1.222,7.012-3.146L36.343,78c-0.716,1.329-1.125,2.848-1.125,4.461c0,5.2,4.232,9.432,9.433,9.432
			c5.2,0,9.432-4.23,9.432-9.432c0-3.025-1.437-5.715-3.658-7.441l13.617-36.079c0.749,0.192,1.53,0.305,2.339,0.305
			c2.973,0,5.623-1.385,7.354-3.542l21.318,18.695c-1.152,1.565-1.844,3.492-1.844,5.58c0,5.199,4.232,9.431,9.434,9.431
			s9.432-4.231,9.432-9.431S107.844,50.547,102.643,50.547z M9.432,64.49c-2.488,0-4.511-2.023-4.511-4.51
			c0-2.489,2.023-4.512,4.511-4.512s4.511,2.022,4.511,4.512C13.944,62.467,11.92,64.49,9.432,64.49z M44.651,86.973
			c-2.488,0-4.511-2.023-4.511-4.511s2.023-4.512,4.511-4.512c2.487,0,4.511,2.022,4.511,4.512
			C49.161,84.949,47.138,86.973,44.651,86.973z M66.381,34.326c-2.488,0-4.512-2.023-4.512-4.511c0-2.487,2.023-4.511,4.512-4.511
			c2.486,0,4.51,2.023,4.51,4.511C70.891,32.303,68.868,34.326,66.381,34.326z M102.643,64.49c-2.487,0-4.512-2.023-4.512-4.51
			c0-2.489,2.023-4.512,4.512-4.512s4.511,2.022,4.511,4.512C107.153,62.467,105.131,64.49,102.643,64.49z"/>
		<path d="M17.821,52.707c1.693-19.326,17.955-34.539,37.714-34.539c2.359,0,4.667,0.228,6.909,0.643
			c1.084-0.342,2.237-0.529,3.434-0.529c4.255,0,7.966,2.34,9.935,5.797c8.285,5.275,14.387,13.677,16.636,23.534l3.237,2.839
			c0.687-0.472,1.418-0.863,2.182-1.173c-3.251-20.438-20.993-36.111-42.332-36.111c-21.34,0-39.083,15.675-42.332,36.114
			C15.02,50.018,16.606,51.204,17.821,52.707z"/>
		<path d="M92.204,65.512c-4.217,16.312-19.058,28.395-36.669,28.395c-2.606,0-5.151-0.266-7.61-0.77
			c-1.185,0.416-2.452,0.654-3.776,0.654c-4.679,0-8.704-2.827-10.472-6.859c-5.512-3.912-9.935-9.256-12.723-15.49l-4.723-2.786
			c-0.426,0.354-0.88,0.668-1.349,0.956c5.693,17.004,21.759,29.295,40.653,29.295c18.893,0,34.957-12.288,40.65-29.288
			C94.537,68.607,93.162,67.195,92.204,65.512z"/>
	</g>
</g>
</svg>